<?xml version="1.0" encoding="UTF-8"?>
<svg width="121px" height="74px" viewBox="0 0 121 74" version="1.1" xmlns="http://www.w3.org/2000/svg"
     xmlns:xlink="http://www.w3.org/1999/xlink">
    <!-- Generator: sketchtool 46.2 (44496) - http://www.bohemiancoding.com/sketch -->
    <title>36A56B18-856D-4C09-B541-B3DB74F36966</title>
    <desc>Created with sketchtool.</desc>
    <defs></defs>
    <g id="Symbols" stroke="none" stroke-width="1" fill="none" fill-rule="evenodd">
        <g id="Brand/Edenred" fill="#ffffff">
            <g id="Edenred">
                <path d="M45.8707368,32.2817964 C43.7302792,32.2817964 42.3682846,33.6762796 41.9465646,35.5246558 L49.5681201,35.5246558 C49.3085273,33.4816638 47.8815556,32.2817964 45.8707368,32.2817964"
                      id="Fill-1"></path>
                <path d="M25.5045956,33.0924008 C22.7802909,33.0924008 21.0615533,34.973581 21.0615533,37.6004202 C21.0615533,40.1950862 22.8130948,42.140928 25.5045956,42.140928 C28.1964118,42.140928 30.0126149,40.2925518 30.0126149,37.6004202 C30.0126149,34.908604 28.1964118,33.0924008 25.5045956,33.0924008"
                      id="Fill-3"></path>
                <path d="M47.3013102,42.461555 C48.7610013,42.461555 50.1137473,42.0398351 51.3787918,41.4559879 L50.9667848,45.38016 C49.5395874,45.9640072 47.8205779,46.190796 46.101253,46.190796 C40.3924633,46.190796 36.3701894,42.8504711 36.3701894,37.1747574 C36.3701894,32.2453335 39.9706766,28.5482656 45.4848198,28.5482656 C51.7128772,28.5482656 54.8265904,32.5049263 54.6969312,38.6023599 L41.8521544,38.6023599 C42.3389284,41.3910108 44.9986767,42.461555 47.3013102,42.461555 L47.3013102,42.461555 Z M34.7817855,36.3641214 C34.7817855,42.5587052 31.116311,46.190796 25.0507219,46.190796 C19.4390977,46.190796 15.643964,42.4287511 15.643964,37.3696885 C15.643964,32.0832063 19.2444512,28.5482656 24.6289352,28.5482656 C27.0940371,28.5482656 28.9105275,29.5210288 29.8190882,30.4941074 L29.8190882,22.9700176 L34.7817855,22.9700176 L34.7817855,36.3641214 Z M80.2849027,28.5482656 C76.1938558,28.5482656 73.006322,30.1827854 72.4864234,34.4242726 C72.4479358,34.4264806 72.5119767,34.4226955 72.4734891,34.4249035 C71.1873078,15.1992672 56.0165525,0 36.4648311,0 C21.0120434,0 7.78491398,9.4976889 2.28433611,22.9700176 L15.3849611,22.9700176 L14.7038561,27.3805713 L4.42166205,27.3805713 L4.42166205,32.0510332 L13.7306235,32.0510332 L13.0170248,36.2991444 L4.42166205,36.2991444 L4.42166205,39.0237645 C4.42166205,40.677525 5.13494529,41.4559879 6.49747086,41.4559879 L15.2877956,41.4559879 L14.5741969,45.8668571 L4.84313326,45.8668571 C4.36897815,45.8668571 3.918168,45.8233288 3.48975639,45.7454194 L3.48975639,45.7492044 C3.48975639,45.7492044 1.80450249,45.5653131 0.761865999,44.2093115 C0.73631273,44.1777692 0.311371322,43.6734085 0.102213078,42.8422701 C0.047636342,42.6252594 0.0438506724,42.6110653 0,42.4426297 C0.0687729971,42.9920958 0.186444226,43.7286075 0.239128127,44.0023943 C0.534725826,45.5407101 0.911084475,46.8434053 0.944524556,46.9351933 C5.31602648,62.4416821 19.5577154,73.8114039 36.4648311,73.8114039 C53.7587161,73.8114039 68.3676149,61.9177652 72.3728533,45.8668571 L67.4120488,45.8668571 L67.4120488,36.8508184 C67.4120488,34.4182796 66.4709945,32.8613538 64.07088,32.8613538 C61.6701345,32.8613538 60.7297111,34.4182796 60.7297111,36.8508184 L60.7297111,45.8668571 L55.7670138,45.8668571 L55.7670138,35.618147 C55.7670138,30.7208963 59.3346919,28.5482656 64.07088,28.5482656 C68.8064371,28.5482656 72.3747462,30.7208963 72.3747462,35.618147 L72.3728533,45.8668571 L77.365836,45.8668571 L77.365836,36.8508184 C77.365836,34.4182796 78.0147629,32.8613538 80.3823837,32.8613538 C81.1284761,32.8613538 82.0367213,33.0884581 82.361027,33.2509007 L83.3014504,28.9050086 C82.75032,28.8400315 81.3556163,28.5482656 80.2849027,28.5482656 L80.2849027,28.5482656 Z"
                      id="Fill-5"></path>
                <path d="M87.9947581,35.5247504 C88.4161627,33.6763742 89.7784727,32.281891 91.9186148,32.281891 C93.9294337,32.281891 95.3567208,33.4817585 95.6159982,35.5247504 L87.9947581,35.5247504 Z M91.7568031,28.7791234 C86.2432166,28.7791234 82.6432989,32.4761913 82.6432989,37.4056152 C82.6432989,43.0816443 86.6649366,46.4216538 92.3731388,46.4216538 C94.0918763,46.4216538 95.8106139,46.1951804 97.237901,45.6110178 L97.649212,41.6871611 C96.384683,42.2703774 95.0324664,42.6924128 93.5730062,42.6924128 C91.2704215,42.6924128 88.6107784,41.6218686 88.1240814,38.8329023 L100.967457,38.8329023 C101.097096,32.7357841 97.9838754,28.7791234 91.7568031,28.7791234 L91.7568031,28.7791234 Z"
                      id="Fill-7"></path>
                <path d="M111.149676,42.1407703 C108.45786,42.1407703 106.706319,40.1949285 106.706319,37.6002624 C106.706319,34.9734233 108.425372,33.0922431 111.149676,33.0922431 C113.841493,33.0922431 115.657696,34.9087617 115.657696,37.6002624 C115.657696,40.292394 113.841493,42.1407703 111.149676,42.1407703 L111.149676,42.1407703 Z M115.690184,23.2009069 L115.690184,30.7249968 C114.782083,29.7519181 112.96588,28.779155 110.500852,28.779155 C105.117535,28.779155 101.517617,32.3140957 101.517617,37.6002624 C101.517617,42.6599558 105.311836,46.4216854 110.922572,46.4216854 C116.987517,46.4216854 120.652097,42.7895945 120.652097,36.5950107 L120.652097,23.2009069 L115.690184,23.2009069 Z"
                      id="Fill-9"></path>
            </g>
        </g>
    </g>
</svg>